<?xml version="1.0" encoding="iso-8859-1"?>
<!-- Uploaded to: SVG Repo, www.svgrepo.com, Generator: SVG Repo Mixer Tools -->
<svg height="800px" width="800px" version="1.1" id="Layer_1" xmlns="http://www.w3.org/2000/svg" xmlns:xlink="http://www.w3.org/1999/xlink" 
	 viewBox="0 0 512 512" xml:space="preserve">
<path style="fill:#FA6E51;" d="M0,256.006C0,397.402,114.606,512.004,255.996,512C397.394,512.004,512,397.402,512,256.006
	C512.009,114.61,397.394,0,255.996,0C114.606,0,0,114.614,0,256.006z"/>
<path style="fill:#E8573F;" d="M512,256.005c0.001-29.216-4.958-57.258-13.969-83.411c-0.412-0.419-77.439-77.513-78.211-78.211
	c-5.566-6.165-13.534-10.117-22.475-10.117h-282.69c-16.756,0-30.388,13.629-30.388,30.385v282.698
	c0,8.938,3.951,16.903,10.113,22.468c0.699,0.773,76.193,76.268,76.969,76.969c0.397,0.437,0.83,0.834,1.248,1.247
	c26.15,9.01,54.188,13.968,83.399,13.968C397.394,512.004,512,397.401,512,256.005z"/>
<g>
	<path style="fill:#F4F6F9;" d="M397.345,84.267h-282.69c-16.756,0-30.388,13.628-30.388,30.384v282.698
		c0,16.757,13.632,30.385,30.388,30.385h282.69c16.756,0,30.388-13.628,30.388-30.384V114.651
		C427.733,97.894,414.101,84.267,397.345,84.267z M412.8,397.349c0,8.516-6.934,15.451-15.455,15.451h-282.69
		c-8.521,0-15.455-6.934-15.455-15.451V114.651c0-8.516,6.934-15.451,15.455-15.451h282.69c8.521,0,15.455,6.934,15.455,15.451
		V397.349z"/>
	<path style="fill:#F4F6F9;" d="M318.999,121.6c-31.135,0-56.467,25.12-56.467,56s25.331,56,56.467,56s56.467-25.12,56.467-56
		S350.135,121.6,318.999,121.6z M318.999,218.667c-22.903,0-41.534-18.426-41.534-41.067s18.63-41.067,41.534-41.067
		c22.903,0,41.534,18.426,41.534,41.067S341.903,218.667,318.999,218.667z"/>
	<path style="fill:#F4F6F9;" d="M318.999,153.953c-13.125,0-23.799,10.609-23.799,23.647s10.675,23.647,23.799,23.647
		c13.125,0,23.799-10.609,23.799-23.647S332.125,153.953,318.999,153.953z M318.999,186.314c-4.889,0-8.866-3.908-8.866-8.714
		c0-4.805,3.978-8.714,8.866-8.714c4.89,0,8.866,3.908,8.866,8.714C327.866,182.405,323.889,186.314,318.999,186.314z"/>
	<path style="fill:#F4F6F9;" d="M192.999,121.6c-31.135,0-56.466,25.12-56.466,56s25.331,56,56.466,56
		c31.136,0,56.466-25.12,56.466-56S224.135,121.6,192.999,121.6z M192.999,218.667c-22.902,0-41.533-18.426-41.533-41.067
		s18.63-41.067,41.533-41.067c22.903,0,41.533,18.426,41.533,41.067S215.903,218.667,192.999,218.667z"/>
	<path style="fill:#F4F6F9;" d="M192.999,153.953c-13.125,0-23.801,10.609-23.801,23.647s10.675,23.647,23.801,23.647
		c13.125,0,23.801-10.609,23.801-23.647S206.125,153.953,192.999,153.953z M192.999,186.314c-4.889,0-8.867-3.908-8.867-8.714
		c0-4.805,3.978-8.714,8.867-8.714c4.89,0,8.867,3.908,8.867,8.714C201.867,182.405,197.889,186.314,192.999,186.314z"/>
	<path style="fill:#F4F6F9;" d="M318.999,248.533c-31.135,0-56.467,25.12-56.467,56s25.331,56,56.467,56s56.467-25.12,56.467-56
		S350.135,248.533,318.999,248.533z M318.999,345.6c-22.903,0-41.534-18.426-41.534-41.067s18.63-41.067,41.534-41.067
		c22.903,0,41.534,18.426,41.534,41.067S341.903,345.6,318.999,345.6z"/>
	<path style="fill:#F4F6F9;" d="M318.999,280.886c-13.125,0-23.799,10.609-23.799,23.647c0,13.038,10.675,23.647,23.799,23.647
		c13.125,0,23.799-10.609,23.799-23.647C342.799,291.495,332.125,280.886,318.999,280.886z M318.999,313.247
		c-4.889,0-8.866-3.908-8.866-8.714c0-4.805,3.978-8.714,8.866-8.714c4.89,0,8.866,3.908,8.866,8.714
		C327.866,309.339,323.889,313.247,318.999,313.247z"/>
	<path style="fill:#F4F6F9;" d="M192.999,248.533c-31.135,0-56.466,25.12-56.466,56s25.331,56,56.466,56
		c31.136,0,56.466-25.12,56.466-56S224.135,248.533,192.999,248.533z M192.999,345.6c-22.902,0-41.533-18.426-41.533-41.067
		s18.63-41.067,41.533-41.067c22.903,0,41.533,18.426,41.533,41.067S215.903,345.6,192.999,345.6z"/>
	<path style="fill:#F4F6F9;" d="M192.999,280.886c-13.125,0-23.801,10.609-23.801,23.647c0,13.038,10.675,23.647,23.801,23.647
		c13.125,0,23.801-10.609,23.801-23.647C216.8,291.495,206.125,280.886,192.999,280.886z M192.999,313.247
		c-4.889,0-8.867-3.908-8.867-8.714c0-4.805,3.978-8.714,8.867-8.714c4.89,0,8.867,3.908,8.867,8.714
		C201.867,309.339,197.889,313.247,192.999,313.247z"/>
	<path style="fill:#F4F6F9;" d="M308.267,382.933h-22.4c-4.124,0-7.467,3.34-7.467,7.467s3.343,7.467,7.467,7.467h22.4
		c4.124,0,7.467-3.34,7.467-7.467S312.39,382.933,308.267,382.933z"/>
	<path style="fill:#F4F6F9;" d="M360.533,382.933h-22.4c-4.124,0-7.467,3.34-7.467,7.467s3.343,7.467,7.467,7.467h22.4
		c4.124,0,7.467-3.34,7.467-7.467S364.657,382.933,360.533,382.933z"/>
</g>
</svg>