<?xml version="1.0" encoding="iso-8859-1"?>
<!-- Uploaded to: SVG Repo, www.svgrepo.com, Generator: SVG Repo Mixer Tools -->
<svg version="1.1" id="Layer_1" xmlns="http://www.w3.org/2000/svg" xmlns:xlink="http://www.w3.org/1999/xlink" 
	 viewBox="0 0 426 426" xml:space="preserve">
<g>
	<rect x="240" y="111" style="fill:#F24125;" width="89" height="18"/>
	<rect x="105" y="111" style="fill:#F24125;" width="89" height="18"/>
	<rect x="105" y="111" style="opacity:0.44;fill:#333333;enable-background:new    ;" width="24" height="18"/>
	<rect x="240" y="111" style="opacity:0.44;fill:#333333;enable-background:new    ;" width="24" height="18"/>
	<polygon style="fill:#808080;" points="225.5,234.2 225.5,249.98 290.5,249.98 290.5,200 311.5,200 311.5,340 122.5,340 122.5,200 
		225.5,200 	"/>
	<path style="fill:#E6E6E6;" d="M290.5,175.78V165h-65v10.78V200h-103v140h189V200h-21V175.78z M353.5,129v258h-18h-24h-189h-24h-18
		V129H105h89h46h89H353.5z"/>
	<rect x="311.503" y="386.999" style="fill:#E6E6E6;" width="24" height="33"/>
	<polygon style="fill:#F7B239;" points="225.5,234.2 225.5,200 290.5,200 290.5,249.98 225.5,249.98 	"/>
	<rect x="225.5" y="175.78" style="fill:#F7B239;" width="65" height="24.22"/>
	<rect x="225.5" y="165" style="fill:#F7B239;" width="65" height="10.78"/>
	<polygon style="fill:#F7B239;" points="202.75,45 202.75,111 194,111 105,111 96.25,111 96.25,45 96.25,28 130,28 169,28 
		202.75,28 	"/>
	<rect x="96.25" y="28" style="opacity:0.44;fill:#333333;enable-background:new    ;" width="28" height="83"/>
	<rect x="98.503" y="386.999" style="fill:#E6E6E6;" width="24" height="33"/>
	<path style="fill:#808080;" d="M311.503,386.999v17h24v-17H311.503z M98.503,403.999h24v-17h-24V403.999z"/>
	<path style="fill:#333333;" d="M353.5,123H335v-12c0-3.313-2.687-6-6-6h-89c-3.313,0-6,2.687-6,6v12h-34v-6h2.75
		c3.313,0,6-2.686,6-6V51h17.75c3.313,0,6-2.687,6-6s-2.687-6-6-6h-17.75V28c0-3.314-2.687-6-6-6H175V6c0-3.313-2.687-6-6-6h-39
		c-3.313,0-6,2.687-6,6v16H96.25c-3.313,0-6,2.686-6,6v11H72.5c-3.313,0-6,2.687-6,6s2.687,6,6,6h17.75v60c0,3.314,2.687,6,6,6H99v6
		H80.5c-3.313,0-6,2.687-6,6v258c0,3.313,2.687,6,6,6h12v27c0,3.313,2.687,6,6,6h24c3.313,0,6-2.687,6-6v-27h177v27
		c0,3.313,2.687,6,6,6h24c3.313,0,6-2.687,6-6v-27h12c3.313,0,6-2.687,6-6V129C359.5,125.687,356.813,123,353.5,123z M246,117h77v6
		h-77V117z M136,12h27v10h-27V12z M102.25,34h94.5v71h-94.5V34z M188,117v6h-77v-6H188z M116.5,414h-12v-21h12V414z M329.5,414h-12
		v-21h12V414z M347.5,381h-261V135h261V381z"/>
	<g>
		<path style="fill:#333333;" d="M310.25,181.78c4.144,0,8.037-1.612,10.962-4.538c2.927-2.926,4.538-6.819,4.538-10.962
			c0-8.547-6.953-15.5-15.5-15.5h-4.5c-3.313,0-6,2.687-6,6s2.687,6,6,6h4.5c1.93,0,3.5,1.57,3.5,3.5
			c0,0.938-0.363,1.817-1.023,2.478c-0.659,0.659-1.539,1.022-2.477,1.022H296.5V165c0-3.313-2.687-6-6-6h-65c-3.313,0-6,2.687-6,6
			v4.78h-95.75c-1.93,0-3.5-1.57-3.5-3.5c0-0.938,0.363-1.818,1.021-2.477c0.66-0.66,1.54-1.023,2.479-1.023h4.5
			c3.313,0,6-2.687,6-6s-2.687-6-6-6h-4.5c-4.144,0-8.036,1.611-10.964,4.538c-2.925,2.926-4.536,6.819-4.536,10.962
			c0,8.547,6.953,15.5,15.5,15.5h95.75V194h-97c-3.313,0-6,2.687-6,6v140c0,3.313,2.687,6,6,6h189c3.313,0,6-2.687,6-6V200
			c0-3.313-2.687-6-6-6h-15v-12.22H310.25z M231.5,171h53v72.98h-53V171z M305.5,206v128h-177V206h91v22.2h-69c-3.313,0-6,2.687-6,6
			s2.687,6,6,6h69v9.78c0,3.313,2.687,6,6,6h65c3.313,0,6-2.687,6-6V206H305.5z"/>
		<path style="fill:#333333;" d="M283.5,264h-133c-3.313,0-6,2.687-6,6s2.687,6,6,6h133c3.313,0,6-2.687,6-6S286.813,264,283.5,264z
			"/>
		<path style="fill:#333333;" d="M283.5,299.8h-133c-3.313,0-6,2.687-6,6s2.687,6,6,6h133c3.313,0,6-2.687,6-6
			S286.813,299.8,283.5,299.8z"/>
	</g>
	<path style="fill:#FFFFFF;" d="M183.5,99c-3.313,0-6-2.687-6-6V46c0-3.313,2.687-6,6-6s6,2.687,6,6v47
		C189.5,96.313,186.813,99,183.5,99z"/>
	<path style="fill:#FFFFFF;" d="M333.5,357c-3.313,0-6-2.687-6-6V204c0-3.313,2.687-6,6-6s6,2.687,6,6v147
		C339.5,354.313,336.813,357,333.5,357z"/>
	<path style="fill:#FFFFFF;" d="M333.503,186.999c-1.58,0-3.13-0.64-4.25-1.76c-1.11-1.11-1.75-2.66-1.75-4.24
		c0-0.39,0.04-0.79,0.109-1.17c0.08-0.38,0.2-0.76,0.351-1.12c0.149-0.37,0.33-0.71,0.55-1.04s0.47-0.63,0.74-0.91
		c1.39-1.39,3.47-2.03,5.42-1.64c0.38,0.08,0.76,0.19,1.12,0.34c0.359,0.15,0.71,0.34,1.04,0.55c0.33,0.22,0.63,0.47,0.91,0.75
		c0.279,0.28,0.529,0.58,0.739,0.91c0.221,0.33,0.41,0.67,0.561,1.04c0.149,0.36,0.26,0.74,0.34,1.12c0.08,0.38,0.12,0.78,0.12,1.17
		c0,1.58-0.641,3.13-1.76,4.24c-0.28,0.28-0.591,0.53-0.91,0.75c-0.33,0.22-0.681,0.4-1.04,0.55c-0.36,0.15-0.74,0.27-1.12,0.34
		C334.283,186.959,333.893,186.999,333.503,186.999z"/>
</g>
</svg>